<?xml version="1.0" encoding="utf-8"?>
<svg xmlns="http://www.w3.org/2000/svg" xmlns:xlink="http://www.w3.org/1999/xlink" width="600" height="400" viewBox="0 0 2400 1600">
<defs>
  <clipPath id="clip4400">
    <rect x="0" y="0" width="2400" height="1600"/>
  </clipPath>
</defs>
<polygon clip-path="url(#clip4400)" points="
0,1600 2400,1600 2400,0 0,0 
  " fill="#ffffff" fill-rule="evenodd" fill-opacity="1"/>
<defs>
  <clipPath id="clip4401">
    <rect x="480" y="0" width="1681" height="1600"/>
  </clipPath>
</defs>
<polygon clip-path="url(#clip4400)" points="
189.504,1503.47 2321.26,1503.47 2321.26,47.2441 189.504,47.2441 
  " fill="#ffffff" fill-rule="evenodd" fill-opacity="1"/>
<defs>
  <clipPath id="clip4402">
    <rect x="189" y="47" width="2133" height="1457"/>
  </clipPath>
</defs>
<polyline clip-path="url(#clip4402)" style="stroke:#000000; stroke-width:2; stroke-opacity:0.1; fill:none" points="
  253.265,1503.47 253.265,47.2441 
  "/>
<polyline clip-path="url(#clip4402)" style="stroke:#000000; stroke-width:2; stroke-opacity:0.1; fill:none" points="
  754.291,1503.47 754.291,47.2441 
  "/>
<polyline clip-path="url(#clip4402)" style="stroke:#000000; stroke-width:2; stroke-opacity:0.1; fill:none" points="
  1255.32,1503.47 1255.32,47.2441 
  "/>
<polyline clip-path="url(#clip4402)" style="stroke:#000000; stroke-width:2; stroke-opacity:0.1; fill:none" points="
  1756.34,1503.47 1756.34,47.2441 
  "/>
<polyline clip-path="url(#clip4402)" style="stroke:#000000; stroke-width:2; stroke-opacity:0.1; fill:none" points="
  2257.37,1503.47 2257.37,47.2441 
  "/>
<polyline clip-path="url(#clip4402)" style="stroke:#000000; stroke-width:2; stroke-opacity:0.1; fill:none" points="
  189.504,1248.86 2321.26,1248.86 
  "/>
<polyline clip-path="url(#clip4402)" style="stroke:#000000; stroke-width:2; stroke-opacity:0.1; fill:none" points="
  189.504,958.743 2321.26,958.743 
  "/>
<polyline clip-path="url(#clip4402)" style="stroke:#000000; stroke-width:2; stroke-opacity:0.1; fill:none" points="
  189.504,668.626 2321.26,668.626 
  "/>
<polyline clip-path="url(#clip4402)" style="stroke:#000000; stroke-width:2; stroke-opacity:0.1; fill:none" points="
  189.504,378.508 2321.26,378.508 
  "/>
<polyline clip-path="url(#clip4402)" style="stroke:#000000; stroke-width:2; stroke-opacity:0.1; fill:none" points="
  189.504,88.3911 2321.26,88.3911 
  "/>
<polyline clip-path="url(#clip4400)" style="stroke:#000000; stroke-width:4; stroke-opacity:1; fill:none" points="
  189.504,1503.47 2321.26,1503.47 
  "/>
<polyline clip-path="url(#clip4400)" style="stroke:#000000; stroke-width:4; stroke-opacity:1; fill:none" points="
  189.504,1503.47 189.504,47.2441 
  "/>
<polyline clip-path="url(#clip4400)" style="stroke:#000000; stroke-width:4; stroke-opacity:1; fill:none" points="
  253.265,1503.47 253.265,1481.63 
  "/>
<polyline clip-path="url(#clip4400)" style="stroke:#000000; stroke-width:4; stroke-opacity:1; fill:none" points="
  754.291,1503.47 754.291,1481.63 
  "/>
<polyline clip-path="url(#clip4400)" style="stroke:#000000; stroke-width:4; stroke-opacity:1; fill:none" points="
  1255.32,1503.47 1255.32,1481.63 
  "/>
<polyline clip-path="url(#clip4400)" style="stroke:#000000; stroke-width:4; stroke-opacity:1; fill:none" points="
  1756.34,1503.47 1756.34,1481.63 
  "/>
<polyline clip-path="url(#clip4400)" style="stroke:#000000; stroke-width:4; stroke-opacity:1; fill:none" points="
  2257.37,1503.47 2257.37,1481.63 
  "/>
<polyline clip-path="url(#clip4400)" style="stroke:#000000; stroke-width:4; stroke-opacity:1; fill:none" points="
  189.504,1248.86 221.48,1248.86 
  "/>
<polyline clip-path="url(#clip4400)" style="stroke:#000000; stroke-width:4; stroke-opacity:1; fill:none" points="
  189.504,958.743 221.48,958.743 
  "/>
<polyline clip-path="url(#clip4400)" style="stroke:#000000; stroke-width:4; stroke-opacity:1; fill:none" points="
  189.504,668.626 221.48,668.626 
  "/>
<polyline clip-path="url(#clip4400)" style="stroke:#000000; stroke-width:4; stroke-opacity:1; fill:none" points="
  189.504,378.508 221.48,378.508 
  "/>
<polyline clip-path="url(#clip4400)" style="stroke:#000000; stroke-width:4; stroke-opacity:1; fill:none" points="
  189.504,88.3911 221.48,88.3911 
  "/>
<g clip-path="url(#clip4400)">
<text style="fill:#000000; fill-opacity:1; font-family:Arial,Helvetica Neue,Helvetica,sans-serif; font-size:48px; text-anchor:middle;" transform="rotate(0, 253.265, 1557.47)" x="253.265" y="1557.47">-1.0</text>
</g>
<g clip-path="url(#clip4400)">
<text style="fill:#000000; fill-opacity:1; font-family:Arial,Helvetica Neue,Helvetica,sans-serif; font-size:48px; text-anchor:middle;" transform="rotate(0, 754.291, 1557.47)" x="754.291" y="1557.47">-0.5</text>
</g>
<g clip-path="url(#clip4400)">
<text style="fill:#000000; fill-opacity:1; font-family:Arial,Helvetica Neue,Helvetica,sans-serif; font-size:48px; text-anchor:middle;" transform="rotate(0, 1255.32, 1557.47)" x="1255.32" y="1557.47">0.0</text>
</g>
<g clip-path="url(#clip4400)">
<text style="fill:#000000; fill-opacity:1; font-family:Arial,Helvetica Neue,Helvetica,sans-serif; font-size:48px; text-anchor:middle;" transform="rotate(0, 1756.34, 1557.47)" x="1756.34" y="1557.47">0.5</text>
</g>
<g clip-path="url(#clip4400)">
<text style="fill:#000000; fill-opacity:1; font-family:Arial,Helvetica Neue,Helvetica,sans-serif; font-size:48px; text-anchor:middle;" transform="rotate(0, 2257.37, 1557.47)" x="2257.37" y="1557.47">1.0</text>
</g>
<g clip-path="url(#clip4400)">
<text style="fill:#000000; fill-opacity:1; font-family:Arial,Helvetica Neue,Helvetica,sans-serif; font-size:48px; text-anchor:end;" transform="rotate(0, 165.504, 1266.36)" x="165.504" y="1266.36">-2.0</text>
</g>
<g clip-path="url(#clip4400)">
<text style="fill:#000000; fill-opacity:1; font-family:Arial,Helvetica Neue,Helvetica,sans-serif; font-size:48px; text-anchor:end;" transform="rotate(0, 165.504, 976.243)" x="165.504" y="976.243">-1.5</text>
</g>
<g clip-path="url(#clip4400)">
<text style="fill:#000000; fill-opacity:1; font-family:Arial,Helvetica Neue,Helvetica,sans-serif; font-size:48px; text-anchor:end;" transform="rotate(0, 165.504, 686.126)" x="165.504" y="686.126">-1.0</text>
</g>
<g clip-path="url(#clip4400)">
<text style="fill:#000000; fill-opacity:1; font-family:Arial,Helvetica Neue,Helvetica,sans-serif; font-size:48px; text-anchor:end;" transform="rotate(0, 165.504, 396.008)" x="165.504" y="396.008">-0.5</text>
</g>
<g clip-path="url(#clip4400)">
<text style="fill:#000000; fill-opacity:1; font-family:Arial,Helvetica Neue,Helvetica,sans-serif; font-size:48px; text-anchor:end;" transform="rotate(0, 165.504, 105.891)" x="165.504" y="105.891">0.0</text>
</g>
<polyline clip-path="url(#clip4402)" style="stroke:#009af9; stroke-width:4; stroke-opacity:1; fill:none" points="
  2257.31,116.85 2256.26,202.126 2249.49,343.125 2224.8,534.689 2163.12,762.817 2045.92,1002.18 1864.41,1219.27 1624.47,1379.88 1345.82,1457.21 1057.34,1438.04 
  790.172,1325.67 570.412,1139.21 412.887,909.265 317.684,670.734 271.484,454.604 254.601,281.767 250.329,162.218 249.837,99.0226 250.394,92.7041 251.721,143.287 
  255.532,250.475 268.861,412.122 306.832,620.233 389.309,856.453 531.904,1091.58 737.895,1290.76 995.635,1421.72 1281.12,1462.26 1563.8,1405.42 1813.75,1260.95 
  2008.78,1053.17 2139.77,815.416 2212.55,582.117 2244.24,380.899 2254.56,228.18 2257.4,130.596 2258.64,89.7452 2259.5,105.807 2259.34,178.723 2254.55,307.75 
  2234.8,488.977 2182.21,710.71 2077.44,950.089 1909.1,1174.93 1679.81,1350.51 1406.69,1447.81 1117.2,1450.22 842.657,1357.35 610.891,1185.02 439.601,961.793 
  332.157,722.303 277.708,499.051 257.05,315.463 252.001,183.738 251.784,108.048 252.534,89.2062 253.557,127.279 255.964,222.112 265.369,372.235 295.3,571.368 
  365.397,803.637 493.154,1041.91 685.079,1251.92 932.799,1400.11 1214.65,1461.57 1500.94,1425.76 1760.93,1298.87 1970.13,1102.38 2116.16,868.26 2201.53,631.398 
  2241.38,421.418 2255.54,257.238 2259.5,147.279 2260.65,93.8741 2260.93,97.366 2260.18,157.741 2255.93,274.533 2239.78,444.904 2195.39,659.329 2103,897.483 
  1948.75,1128.76 1731.98,1318.21 1466.81,1434.84 1178.92,1458.82 899.338,1386.01 657.183,1228.88 472.755,1013.7 352.632,774.529 288.66,545.116 262.563,351.325 
  255.069,207.691 253.586,119.672 253.162,88.4582 252.874,114.162 253.565,196.693 259.713,335.042 283.127,524.345 342.647,751.126 457.024,990.597 635.646,1209.53 
  
  "/>
<polygon clip-path="url(#clip4402)" style="fill:#000000; fill-opacity:1" points="
  2257.31,136.85 2239.99,126.85 2239.99,106.85 2257.31,96.85 2274.63,106.85 2274.63,126.85 
  "/>
<polygon clip-path="url(#clip4402)" style="fill:#009af9; fill-opacity:1" points="
  2257.31,132.85 2243.45,124.85 2243.45,108.85 2257.31,100.85 2271.17,108.85 2271.17,124.85 
  "/>
<polygon clip-path="url(#clip4402)" style="fill:#000000; fill-opacity:1" points="
  2256.26,222.126 2238.94,212.126 2238.94,192.126 2256.26,182.126 2273.58,192.126 2273.58,212.126 
  "/>
<polygon clip-path="url(#clip4402)" style="fill:#009af9; fill-opacity:1" points="
  2256.26,218.126 2242.4,210.126 2242.4,194.126 2256.26,186.126 2270.11,194.126 2270.11,210.126 
  "/>
<polygon clip-path="url(#clip4402)" style="fill:#000000; fill-opacity:1" points="
  2249.49,363.125 2232.17,353.125 2232.17,333.125 2249.49,323.125 2266.81,333.125 2266.81,353.125 
  "/>
<polygon clip-path="url(#clip4402)" style="fill:#009af9; fill-opacity:1" points="
  2249.49,359.125 2235.63,351.125 2235.63,335.125 2249.49,327.125 2263.35,335.125 2263.35,351.125 
  "/>
<polygon clip-path="url(#clip4402)" style="fill:#000000; fill-opacity:1" points="
  2224.8,554.689 2207.48,544.689 2207.48,524.689 2224.8,514.689 2242.12,524.689 2242.12,544.689 
  "/>
<polygon clip-path="url(#clip4402)" style="fill:#009af9; fill-opacity:1" points="
  2224.8,550.689 2210.95,542.689 2210.95,526.689 2224.8,518.689 2238.66,526.689 2238.66,542.689 
  "/>
<polygon clip-path="url(#clip4402)" style="fill:#000000; fill-opacity:1" points="
  2163.12,782.817 2145.8,772.817 2145.8,752.817 2163.12,742.817 2180.44,752.817 2180.44,772.817 
  "/>
<polygon clip-path="url(#clip4402)" style="fill:#009af9; fill-opacity:1" points="
  2163.12,778.817 2149.27,770.817 2149.27,754.817 2163.12,746.817 2176.98,754.817 2176.98,770.817 
  "/>
<polygon clip-path="url(#clip4402)" style="fill:#000000; fill-opacity:1" points="
  2045.92,1022.18 2028.6,1012.18 2028.6,992.176 2045.92,982.176 2063.24,992.176 2063.24,1012.18 
  "/>
<polygon clip-path="url(#clip4402)" style="fill:#009af9; fill-opacity:1" points="
  2045.92,1018.18 2032.07,1010.18 2032.07,994.176 2045.92,986.176 2059.78,994.176 2059.78,1010.18 
  "/>
<polygon clip-path="url(#clip4402)" style="fill:#000000; fill-opacity:1" points="
  1864.41,1239.27 1847.09,1229.27 1847.09,1209.27 1864.41,1199.27 1881.73,1209.27 1881.73,1229.27 
  "/>
<polygon clip-path="url(#clip4402)" style="fill:#009af9; fill-opacity:1" points="
  1864.41,1235.27 1850.56,1227.27 1850.56,1211.27 1864.41,1203.27 1878.27,1211.27 1878.27,1227.27 
  "/>
<polygon clip-path="url(#clip4402)" style="fill:#000000; fill-opacity:1" points="
  1624.47,1399.88 1607.15,1389.88 1607.15,1369.88 1624.47,1359.88 1641.79,1369.88 1641.79,1389.88 
  "/>
<polygon clip-path="url(#clip4402)" style="fill:#009af9; fill-opacity:1" points="
  1624.47,1395.88 1610.61,1387.88 1610.61,1371.88 1624.47,1363.88 1638.32,1371.88 1638.32,1387.88 
  "/>
<polygon clip-path="url(#clip4402)" style="fill:#000000; fill-opacity:1" points="
  1345.82,1477.21 1328.5,1467.21 1328.5,1447.21 1345.82,1437.21 1363.14,1447.21 1363.14,1467.21 
  "/>
<polygon clip-path="url(#clip4402)" style="fill:#009af9; fill-opacity:1" points="
  1345.82,1473.21 1331.97,1465.21 1331.97,1449.21 1345.82,1441.21 1359.68,1449.21 1359.68,1465.21 
  "/>
<polygon clip-path="url(#clip4402)" style="fill:#000000; fill-opacity:1" points="
  1057.34,1458.04 1040.02,1448.04 1040.02,1428.04 1057.34,1418.04 1074.66,1428.04 1074.66,1448.04 
  "/>
<polygon clip-path="url(#clip4402)" style="fill:#009af9; fill-opacity:1" points="
  1057.34,1454.04 1043.49,1446.04 1043.49,1430.04 1057.34,1422.04 1071.2,1430.04 1071.2,1446.04 
  "/>
<polygon clip-path="url(#clip4402)" style="fill:#000000; fill-opacity:1" points="
  790.172,1345.67 772.852,1335.67 772.852,1315.67 790.172,1305.67 807.492,1315.67 807.492,1335.67 
  "/>
<polygon clip-path="url(#clip4402)" style="fill:#009af9; fill-opacity:1" points="
  790.172,1341.67 776.316,1333.67 776.316,1317.67 790.172,1309.67 804.028,1317.67 804.028,1333.67 
  "/>
<polygon clip-path="url(#clip4402)" style="fill:#000000; fill-opacity:1" points="
  570.412,1159.21 553.092,1149.21 553.092,1129.21 570.412,1119.21 587.732,1129.21 587.732,1149.21 
  "/>
<polygon clip-path="url(#clip4402)" style="fill:#009af9; fill-opacity:1" points="
  570.412,1155.21 556.556,1147.21 556.556,1131.21 570.412,1123.21 584.268,1131.21 584.268,1147.21 
  "/>
<polygon clip-path="url(#clip4402)" style="fill:#000000; fill-opacity:1" points="
  412.887,929.265 395.567,919.265 395.567,899.265 412.887,889.265 430.207,899.265 430.207,919.265 
  "/>
<polygon clip-path="url(#clip4402)" style="fill:#009af9; fill-opacity:1" points="
  412.887,925.265 399.031,917.265 399.031,901.265 412.887,893.265 426.743,901.265 426.743,917.265 
  "/>
<polygon clip-path="url(#clip4402)" style="fill:#000000; fill-opacity:1" points="
  317.684,690.734 300.364,680.734 300.364,660.734 317.684,650.734 335.004,660.734 335.004,680.734 
  "/>
<polygon clip-path="url(#clip4402)" style="fill:#009af9; fill-opacity:1" points="
  317.684,686.734 303.828,678.734 303.828,662.734 317.684,654.734 331.54,662.734 331.54,678.734 
  "/>
<polygon clip-path="url(#clip4402)" style="fill:#000000; fill-opacity:1" points="
  271.484,474.604 254.164,464.604 254.164,444.604 271.484,434.604 288.804,444.604 288.804,464.604 
  "/>
<polygon clip-path="url(#clip4402)" style="fill:#009af9; fill-opacity:1" points="
  271.484,470.604 257.628,462.604 257.628,446.604 271.484,438.604 285.34,446.604 285.34,462.604 
  "/>
<polygon clip-path="url(#clip4402)" style="fill:#000000; fill-opacity:1" points="
  254.601,301.767 237.281,291.767 237.281,271.767 254.601,261.767 271.921,271.767 271.921,291.767 
  "/>
<polygon clip-path="url(#clip4402)" style="fill:#009af9; fill-opacity:1" points="
  254.601,297.767 240.745,289.767 240.745,273.767 254.601,265.767 268.457,273.767 268.457,289.767 
  "/>
<polygon clip-path="url(#clip4402)" style="fill:#000000; fill-opacity:1" points="
  250.329,182.218 233.009,172.218 233.009,152.218 250.329,142.218 267.649,152.218 267.649,172.218 
  "/>
<polygon clip-path="url(#clip4402)" style="fill:#009af9; fill-opacity:1" points="
  250.329,178.218 236.473,170.218 236.473,154.218 250.329,146.218 264.185,154.218 264.185,170.218 
  "/>
<polygon clip-path="url(#clip4402)" style="fill:#000000; fill-opacity:1" points="
  249.837,119.023 232.517,109.023 232.517,89.0226 249.837,79.0226 267.157,89.0226 267.157,109.023 
  "/>
<polygon clip-path="url(#clip4402)" style="fill:#009af9; fill-opacity:1" points="
  249.837,115.023 235.981,107.023 235.981,91.0226 249.837,83.0226 263.693,91.0226 263.693,107.023 
  "/>
<polygon clip-path="url(#clip4402)" style="fill:#000000; fill-opacity:1" points="
  250.394,112.704 233.074,102.704 233.074,82.7041 250.394,72.7041 267.714,82.7041 267.714,102.704 
  "/>
<polygon clip-path="url(#clip4402)" style="fill:#009af9; fill-opacity:1" points="
  250.394,108.704 236.538,100.704 236.538,84.7041 250.394,76.7041 264.25,84.7041 264.25,100.704 
  "/>
<polygon clip-path="url(#clip4402)" style="fill:#000000; fill-opacity:1" points="
  251.721,163.287 234.401,153.287 234.401,133.287 251.721,123.287 269.041,133.287 269.041,153.287 
  "/>
<polygon clip-path="url(#clip4402)" style="fill:#009af9; fill-opacity:1" points="
  251.721,159.287 237.865,151.287 237.865,135.287 251.721,127.287 265.577,135.287 265.577,151.287 
  "/>
<polygon clip-path="url(#clip4402)" style="fill:#000000; fill-opacity:1" points="
  255.532,270.475 238.212,260.475 238.212,240.475 255.532,230.475 272.852,240.475 272.852,260.475 
  "/>
<polygon clip-path="url(#clip4402)" style="fill:#009af9; fill-opacity:1" points="
  255.532,266.475 241.676,258.475 241.676,242.475 255.532,234.475 269.388,242.475 269.388,258.475 
  "/>
<polygon clip-path="url(#clip4402)" style="fill:#000000; fill-opacity:1" points="
  268.861,432.122 251.541,422.122 251.541,402.122 268.861,392.122 286.181,402.122 286.181,422.122 
  "/>
<polygon clip-path="url(#clip4402)" style="fill:#009af9; fill-opacity:1" points="
  268.861,428.122 255.005,420.122 255.005,404.122 268.861,396.122 282.717,404.122 282.717,420.122 
  "/>
<polygon clip-path="url(#clip4402)" style="fill:#000000; fill-opacity:1" points="
  306.832,640.233 289.512,630.233 289.512,610.233 306.832,600.233 324.152,610.233 324.152,630.233 
  "/>
<polygon clip-path="url(#clip4402)" style="fill:#009af9; fill-opacity:1" points="
  306.832,636.233 292.976,628.233 292.976,612.233 306.832,604.233 320.688,612.233 320.688,628.233 
  "/>
<polygon clip-path="url(#clip4402)" style="fill:#000000; fill-opacity:1" points="
  389.309,876.453 371.989,866.453 371.989,846.453 389.309,836.453 406.629,846.453 406.629,866.453 
  "/>
<polygon clip-path="url(#clip4402)" style="fill:#009af9; fill-opacity:1" points="
  389.309,872.453 375.453,864.453 375.453,848.453 389.309,840.453 403.165,848.453 403.165,864.453 
  "/>
<polygon clip-path="url(#clip4402)" style="fill:#000000; fill-opacity:1" points="
  531.904,1111.58 514.584,1101.58 514.584,1081.58 531.904,1071.58 549.224,1081.58 549.224,1101.58 
  "/>
<polygon clip-path="url(#clip4402)" style="fill:#009af9; fill-opacity:1" points="
  531.904,1107.58 518.048,1099.58 518.048,1083.58 531.904,1075.58 545.76,1083.58 545.76,1099.58 
  "/>
<polygon clip-path="url(#clip4402)" style="fill:#000000; fill-opacity:1" points="
  737.895,1310.76 720.575,1300.76 720.575,1280.76 737.895,1270.76 755.215,1280.76 755.215,1300.76 
  "/>
<polygon clip-path="url(#clip4402)" style="fill:#009af9; fill-opacity:1" points="
  737.895,1306.76 724.039,1298.76 724.039,1282.76 737.895,1274.76 751.751,1282.76 751.751,1298.76 
  "/>
<polygon clip-path="url(#clip4402)" style="fill:#000000; fill-opacity:1" points="
  995.635,1441.72 978.315,1431.72 978.315,1411.72 995.635,1401.72 1012.95,1411.72 1012.95,1431.72 
  "/>
<polygon clip-path="url(#clip4402)" style="fill:#009af9; fill-opacity:1" points="
  995.635,1437.72 981.779,1429.72 981.779,1413.72 995.635,1405.72 1009.49,1413.72 1009.49,1429.72 
  "/>
<polygon clip-path="url(#clip4402)" style="fill:#000000; fill-opacity:1" points="
  1281.12,1482.26 1263.8,1472.26 1263.8,1452.26 1281.12,1442.26 1298.44,1452.26 1298.44,1472.26 
  "/>
<polygon clip-path="url(#clip4402)" style="fill:#009af9; fill-opacity:1" points="
  1281.12,1478.26 1267.27,1470.26 1267.27,1454.26 1281.12,1446.26 1294.98,1454.26 1294.98,1470.26 
  "/>
<polygon clip-path="url(#clip4402)" style="fill:#000000; fill-opacity:1" points="
  1563.8,1425.42 1546.48,1415.42 1546.48,1395.42 1563.8,1385.42 1581.12,1395.42 1581.12,1415.42 
  "/>
<polygon clip-path="url(#clip4402)" style="fill:#009af9; fill-opacity:1" points="
  1563.8,1421.42 1549.95,1413.42 1549.95,1397.42 1563.8,1389.42 1577.66,1397.42 1577.66,1413.42 
  "/>
<polygon clip-path="url(#clip4402)" style="fill:#000000; fill-opacity:1" points="
  1813.75,1280.95 1796.43,1270.95 1796.43,1250.95 1813.75,1240.95 1831.07,1250.95 1831.07,1270.95 
  "/>
<polygon clip-path="url(#clip4402)" style="fill:#009af9; fill-opacity:1" points="
  1813.75,1276.95 1799.89,1268.95 1799.89,1252.95 1813.75,1244.95 1827.61,1252.95 1827.61,1268.95 
  "/>
<polygon clip-path="url(#clip4402)" style="fill:#000000; fill-opacity:1" points="
  2008.78,1073.17 1991.46,1063.17 1991.46,1043.17 2008.78,1033.17 2026.1,1043.17 2026.1,1063.17 
  "/>
<polygon clip-path="url(#clip4402)" style="fill:#009af9; fill-opacity:1" points="
  2008.78,1069.17 1994.92,1061.17 1994.92,1045.17 2008.78,1037.17 2022.63,1045.17 2022.63,1061.17 
  "/>
<polygon clip-path="url(#clip4402)" style="fill:#000000; fill-opacity:1" points="
  2139.77,835.416 2122.45,825.416 2122.45,805.416 2139.77,795.416 2157.09,805.416 2157.09,825.416 
  "/>
<polygon clip-path="url(#clip4402)" style="fill:#009af9; fill-opacity:1" points="
  2139.77,831.416 2125.92,823.416 2125.92,807.416 2139.77,799.416 2153.63,807.416 2153.63,823.416 
  "/>
<polygon clip-path="url(#clip4402)" style="fill:#000000; fill-opacity:1" points="
  2212.55,602.117 2195.23,592.117 2195.23,572.117 2212.55,562.117 2229.87,572.117 2229.87,592.117 
  "/>
<polygon clip-path="url(#clip4402)" style="fill:#009af9; fill-opacity:1" points="
  2212.55,598.117 2198.7,590.117 2198.7,574.117 2212.55,566.117 2226.41,574.117 2226.41,590.117 
  "/>
<polygon clip-path="url(#clip4402)" style="fill:#000000; fill-opacity:1" points="
  2244.24,400.899 2226.92,390.899 2226.92,370.899 2244.24,360.899 2261.56,370.899 2261.56,390.899 
  "/>
<polygon clip-path="url(#clip4402)" style="fill:#009af9; fill-opacity:1" points="
  2244.24,396.899 2230.38,388.899 2230.38,372.899 2244.24,364.899 2258.1,372.899 2258.1,388.899 
  "/>
<polygon clip-path="url(#clip4402)" style="fill:#000000; fill-opacity:1" points="
  2254.56,248.18 2237.24,238.18 2237.24,218.18 2254.56,208.18 2271.88,218.18 2271.88,238.18 
  "/>
<polygon clip-path="url(#clip4402)" style="fill:#009af9; fill-opacity:1" points="
  2254.56,244.18 2240.7,236.18 2240.7,220.18 2254.56,212.18 2268.42,220.18 2268.42,236.18 
  "/>
<polygon clip-path="url(#clip4402)" style="fill:#000000; fill-opacity:1" points="
  2257.4,150.596 2240.08,140.596 2240.08,120.596 2257.4,110.596 2274.72,120.596 2274.72,140.596 
  "/>
<polygon clip-path="url(#clip4402)" style="fill:#009af9; fill-opacity:1" points="
  2257.4,146.596 2243.54,138.596 2243.54,122.596 2257.4,114.596 2271.25,122.596 2271.25,138.596 
  "/>
<polygon clip-path="url(#clip4402)" style="fill:#000000; fill-opacity:1" points="
  2258.64,109.745 2241.32,99.7452 2241.32,79.7452 2258.64,69.7452 2275.96,79.7452 2275.96,99.7452 
  "/>
<polygon clip-path="url(#clip4402)" style="fill:#009af9; fill-opacity:1" points="
  2258.64,105.745 2244.79,97.7452 2244.79,81.7452 2258.64,73.7452 2272.5,81.7452 2272.5,97.7452 
  "/>
<polygon clip-path="url(#clip4402)" style="fill:#000000; fill-opacity:1" points="
  2259.5,125.807 2242.18,115.807 2242.18,95.8073 2259.5,85.8073 2276.82,95.8073 2276.82,115.807 
  "/>
<polygon clip-path="url(#clip4402)" style="fill:#009af9; fill-opacity:1" points="
  2259.5,121.807 2245.64,113.807 2245.64,97.8073 2259.5,89.8073 2273.35,97.8073 2273.35,113.807 
  "/>
<polygon clip-path="url(#clip4402)" style="fill:#000000; fill-opacity:1" points="
  2259.34,198.723 2242.02,188.723 2242.02,168.723 2259.34,158.723 2276.66,168.723 2276.66,188.723 
  "/>
<polygon clip-path="url(#clip4402)" style="fill:#009af9; fill-opacity:1" points="
  2259.34,194.723 2245.48,186.723 2245.48,170.723 2259.34,162.723 2273.2,170.723 2273.2,186.723 
  "/>
<polygon clip-path="url(#clip4402)" style="fill:#000000; fill-opacity:1" points="
  2254.55,327.75 2237.23,317.75 2237.23,297.75 2254.55,287.75 2271.87,297.75 2271.87,317.75 
  "/>
<polygon clip-path="url(#clip4402)" style="fill:#009af9; fill-opacity:1" points="
  2254.55,323.75 2240.7,315.75 2240.7,299.75 2254.55,291.75 2268.41,299.75 2268.41,315.75 
  "/>
<polygon clip-path="url(#clip4402)" style="fill:#000000; fill-opacity:1" points="
  2234.8,508.977 2217.48,498.977 2217.48,478.977 2234.8,468.977 2252.12,478.977 2252.12,498.977 
  "/>
<polygon clip-path="url(#clip4402)" style="fill:#009af9; fill-opacity:1" points="
  2234.8,504.977 2220.94,496.977 2220.94,480.977 2234.8,472.977 2248.65,480.977 2248.65,496.977 
  "/>
<polygon clip-path="url(#clip4402)" style="fill:#000000; fill-opacity:1" points="
  2182.21,730.71 2164.89,720.71 2164.89,700.71 2182.21,690.71 2199.53,700.71 2199.53,720.71 
  "/>
<polygon clip-path="url(#clip4402)" style="fill:#009af9; fill-opacity:1" points="
  2182.21,726.71 2168.35,718.71 2168.35,702.71 2182.21,694.71 2196.06,702.71 2196.06,718.71 
  "/>
<polygon clip-path="url(#clip4402)" style="fill:#000000; fill-opacity:1" points="
  2077.44,970.089 2060.12,960.089 2060.12,940.089 2077.44,930.089 2094.76,940.089 2094.76,960.089 
  "/>
<polygon clip-path="url(#clip4402)" style="fill:#009af9; fill-opacity:1" points="
  2077.44,966.089 2063.59,958.089 2063.59,942.089 2077.44,934.089 2091.3,942.089 2091.3,958.089 
  "/>
<polygon clip-path="url(#clip4402)" style="fill:#000000; fill-opacity:1" points="
  1909.1,1194.93 1891.78,1184.93 1891.78,1164.93 1909.1,1154.93 1926.42,1164.93 1926.42,1184.93 
  "/>
<polygon clip-path="url(#clip4402)" style="fill:#009af9; fill-opacity:1" points="
  1909.1,1190.93 1895.24,1182.93 1895.24,1166.93 1909.1,1158.93 1922.95,1166.93 1922.95,1182.93 
  "/>
<polygon clip-path="url(#clip4402)" style="fill:#000000; fill-opacity:1" points="
  1679.81,1370.51 1662.49,1360.51 1662.49,1340.51 1679.81,1330.51 1697.13,1340.51 1697.13,1360.51 
  "/>
<polygon clip-path="url(#clip4402)" style="fill:#009af9; fill-opacity:1" points="
  1679.81,1366.51 1665.96,1358.51 1665.96,1342.51 1679.81,1334.51 1693.67,1342.51 1693.67,1358.51 
  "/>
<polygon clip-path="url(#clip4402)" style="fill:#000000; fill-opacity:1" points="
  1406.69,1467.81 1389.37,1457.81 1389.37,1437.81 1406.69,1427.81 1424.01,1437.81 1424.01,1457.81 
  "/>
<polygon clip-path="url(#clip4402)" style="fill:#009af9; fill-opacity:1" points="
  1406.69,1463.81 1392.83,1455.81 1392.83,1439.81 1406.69,1431.81 1420.55,1439.81 1420.55,1455.81 
  "/>
<polygon clip-path="url(#clip4402)" style="fill:#000000; fill-opacity:1" points="
  1117.2,1470.22 1099.88,1460.22 1099.88,1440.22 1117.2,1430.22 1134.52,1440.22 1134.52,1460.22 
  "/>
<polygon clip-path="url(#clip4402)" style="fill:#009af9; fill-opacity:1" points="
  1117.2,1466.22 1103.34,1458.22 1103.34,1442.22 1117.2,1434.22 1131.05,1442.22 1131.05,1458.22 
  "/>
<polygon clip-path="url(#clip4402)" style="fill:#000000; fill-opacity:1" points="
  842.657,1377.35 825.337,1367.35 825.337,1347.35 842.657,1337.35 859.977,1347.35 859.977,1367.35 
  "/>
<polygon clip-path="url(#clip4402)" style="fill:#009af9; fill-opacity:1" points="
  842.657,1373.35 828.801,1365.35 828.801,1349.35 842.657,1341.35 856.513,1349.35 856.513,1365.35 
  "/>
<polygon clip-path="url(#clip4402)" style="fill:#000000; fill-opacity:1" points="
  610.891,1205.02 593.571,1195.02 593.571,1175.02 610.891,1165.02 628.211,1175.02 628.211,1195.02 
  "/>
<polygon clip-path="url(#clip4402)" style="fill:#009af9; fill-opacity:1" points="
  610.891,1201.02 597.035,1193.02 597.035,1177.02 610.891,1169.02 624.747,1177.02 624.747,1193.02 
  "/>
<polygon clip-path="url(#clip4402)" style="fill:#000000; fill-opacity:1" points="
  439.601,981.793 422.281,971.793 422.281,951.793 439.601,941.793 456.921,951.793 456.921,971.793 
  "/>
<polygon clip-path="url(#clip4402)" style="fill:#009af9; fill-opacity:1" points="
  439.601,977.793 425.745,969.793 425.745,953.793 439.601,945.793 453.457,953.793 453.457,969.793 
  "/>
<polygon clip-path="url(#clip4402)" style="fill:#000000; fill-opacity:1" points="
  332.157,742.303 314.837,732.303 314.837,712.303 332.157,702.303 349.477,712.303 349.477,732.303 
  "/>
<polygon clip-path="url(#clip4402)" style="fill:#009af9; fill-opacity:1" points="
  332.157,738.303 318.301,730.303 318.301,714.303 332.157,706.303 346.013,714.303 346.013,730.303 
  "/>
<polygon clip-path="url(#clip4402)" style="fill:#000000; fill-opacity:1" points="
  277.708,519.051 260.388,509.051 260.388,489.051 277.708,479.051 295.028,489.051 295.028,509.051 
  "/>
<polygon clip-path="url(#clip4402)" style="fill:#009af9; fill-opacity:1" points="
  277.708,515.051 263.852,507.051 263.852,491.051 277.708,483.051 291.564,491.051 291.564,507.051 
  "/>
<polygon clip-path="url(#clip4402)" style="fill:#000000; fill-opacity:1" points="
  257.05,335.463 239.73,325.463 239.73,305.463 257.05,295.463 274.37,305.463 274.37,325.463 
  "/>
<polygon clip-path="url(#clip4402)" style="fill:#009af9; fill-opacity:1" points="
  257.05,331.463 243.194,323.463 243.194,307.463 257.05,299.463 270.906,307.463 270.906,323.463 
  "/>
<polygon clip-path="url(#clip4402)" style="fill:#000000; fill-opacity:1" points="
  252.001,203.738 234.681,193.738 234.681,173.738 252.001,163.738 269.321,173.738 269.321,193.738 
  "/>
<polygon clip-path="url(#clip4402)" style="fill:#009af9; fill-opacity:1" points="
  252.001,199.738 238.145,191.738 238.145,175.738 252.001,167.738 265.857,175.738 265.857,191.738 
  "/>
<polygon clip-path="url(#clip4402)" style="fill:#000000; fill-opacity:1" points="
  251.784,128.048 234.464,118.048 234.464,98.048 251.784,88.048 269.104,98.048 269.104,118.048 
  "/>
<polygon clip-path="url(#clip4402)" style="fill:#009af9; fill-opacity:1" points="
  251.784,124.048 237.928,116.048 237.928,100.048 251.784,92.048 265.64,100.048 265.64,116.048 
  "/>
<polygon clip-path="url(#clip4402)" style="fill:#000000; fill-opacity:1" points="
  252.534,109.206 235.214,99.2062 235.214,79.2062 252.534,69.2062 269.854,79.2062 269.854,99.2062 
  "/>
<polygon clip-path="url(#clip4402)" style="fill:#009af9; fill-opacity:1" points="
  252.534,105.206 238.678,97.2062 238.678,81.2062 252.534,73.2062 266.39,81.2062 266.39,97.2062 
  "/>
<polygon clip-path="url(#clip4402)" style="fill:#000000; fill-opacity:1" points="
  253.557,147.279 236.237,137.279 236.237,117.279 253.557,107.279 270.877,117.279 270.877,137.279 
  "/>
<polygon clip-path="url(#clip4402)" style="fill:#009af9; fill-opacity:1" points="
  253.557,143.279 239.701,135.279 239.701,119.279 253.557,111.279 267.413,119.279 267.413,135.279 
  "/>
<polygon clip-path="url(#clip4402)" style="fill:#000000; fill-opacity:1" points="
  255.964,242.112 238.644,232.112 238.644,212.112 255.964,202.112 273.284,212.112 273.284,232.112 
  "/>
<polygon clip-path="url(#clip4402)" style="fill:#009af9; fill-opacity:1" points="
  255.964,238.112 242.108,230.112 242.108,214.112 255.964,206.112 269.82,214.112 269.82,230.112 
  "/>
<polygon clip-path="url(#clip4402)" style="fill:#000000; fill-opacity:1" points="
  265.369,392.235 248.049,382.235 248.049,362.235 265.369,352.235 282.689,362.235 282.689,382.235 
  "/>
<polygon clip-path="url(#clip4402)" style="fill:#009af9; fill-opacity:1" points="
  265.369,388.235 251.513,380.235 251.513,364.235 265.369,356.235 279.225,364.235 279.225,380.235 
  "/>
<polygon clip-path="url(#clip4402)" style="fill:#000000; fill-opacity:1" points="
  295.3,591.368 277.98,581.368 277.98,561.368 295.3,551.368 312.62,561.368 312.62,581.368 
  "/>
<polygon clip-path="url(#clip4402)" style="fill:#009af9; fill-opacity:1" points="
  295.3,587.368 281.444,579.368 281.444,563.368 295.3,555.368 309.156,563.368 309.156,579.368 
  "/>
<polygon clip-path="url(#clip4402)" style="fill:#000000; fill-opacity:1" points="
  365.397,823.637 348.077,813.637 348.077,793.637 365.397,783.637 382.717,793.637 382.717,813.637 
  "/>
<polygon clip-path="url(#clip4402)" style="fill:#009af9; fill-opacity:1" points="
  365.397,819.637 351.541,811.637 351.541,795.637 365.397,787.637 379.253,795.637 379.253,811.637 
  "/>
<polygon clip-path="url(#clip4402)" style="fill:#000000; fill-opacity:1" points="
  493.154,1061.91 475.834,1051.91 475.834,1031.91 493.154,1021.91 510.474,1031.91 510.474,1051.91 
  "/>
<polygon clip-path="url(#clip4402)" style="fill:#009af9; fill-opacity:1" points="
  493.154,1057.91 479.298,1049.91 479.298,1033.91 493.154,1025.91 507.01,1033.91 507.01,1049.91 
  "/>
<polygon clip-path="url(#clip4402)" style="fill:#000000; fill-opacity:1" points="
  685.079,1271.92 667.759,1261.92 667.759,1241.92 685.079,1231.92 702.399,1241.92 702.399,1261.92 
  "/>
<polygon clip-path="url(#clip4402)" style="fill:#009af9; fill-opacity:1" points="
  685.079,1267.92 671.223,1259.92 671.223,1243.92 685.079,1235.92 698.935,1243.92 698.935,1259.92 
  "/>
<polygon clip-path="url(#clip4402)" style="fill:#000000; fill-opacity:1" points="
  932.799,1420.11 915.479,1410.11 915.479,1390.11 932.799,1380.11 950.119,1390.11 950.119,1410.11 
  "/>
<polygon clip-path="url(#clip4402)" style="fill:#009af9; fill-opacity:1" points="
  932.799,1416.11 918.943,1408.11 918.943,1392.11 932.799,1384.11 946.655,1392.11 946.655,1408.11 
  "/>
<polygon clip-path="url(#clip4402)" style="fill:#000000; fill-opacity:1" points="
  1214.65,1481.57 1197.33,1471.57 1197.33,1451.57 1214.65,1441.57 1231.97,1451.57 1231.97,1471.57 
  "/>
<polygon clip-path="url(#clip4402)" style="fill:#009af9; fill-opacity:1" points="
  1214.65,1477.57 1200.8,1469.57 1200.8,1453.57 1214.65,1445.57 1228.51,1453.57 1228.51,1469.57 
  "/>
<polygon clip-path="url(#clip4402)" style="fill:#000000; fill-opacity:1" points="
  1500.94,1445.76 1483.62,1435.76 1483.62,1415.76 1500.94,1405.76 1518.26,1415.76 1518.26,1435.76 
  "/>
<polygon clip-path="url(#clip4402)" style="fill:#009af9; fill-opacity:1" points="
  1500.94,1441.76 1487.08,1433.76 1487.08,1417.76 1500.94,1409.76 1514.8,1417.76 1514.8,1433.76 
  "/>
<polygon clip-path="url(#clip4402)" style="fill:#000000; fill-opacity:1" points="
  1760.93,1318.87 1743.61,1308.87 1743.61,1288.87 1760.93,1278.87 1778.25,1288.87 1778.25,1308.87 
  "/>
<polygon clip-path="url(#clip4402)" style="fill:#009af9; fill-opacity:1" points="
  1760.93,1314.87 1747.07,1306.87 1747.07,1290.87 1760.93,1282.87 1774.79,1290.87 1774.79,1306.87 
  "/>
<polygon clip-path="url(#clip4402)" style="fill:#000000; fill-opacity:1" points="
  1970.13,1122.38 1952.81,1112.38 1952.81,1092.38 1970.13,1082.38 1987.45,1092.38 1987.45,1112.38 
  "/>
<polygon clip-path="url(#clip4402)" style="fill:#009af9; fill-opacity:1" points="
  1970.13,1118.38 1956.27,1110.38 1956.27,1094.38 1970.13,1086.38 1983.99,1094.38 1983.99,1110.38 
  "/>
<polygon clip-path="url(#clip4402)" style="fill:#000000; fill-opacity:1" points="
  2116.16,888.26 2098.84,878.26 2098.84,858.26 2116.16,848.26 2133.48,858.26 2133.48,878.26 
  "/>
<polygon clip-path="url(#clip4402)" style="fill:#009af9; fill-opacity:1" points="
  2116.16,884.26 2102.3,876.26 2102.3,860.26 2116.16,852.26 2130.01,860.26 2130.01,876.26 
  "/>
<polygon clip-path="url(#clip4402)" style="fill:#000000; fill-opacity:1" points="
  2201.53,651.398 2184.21,641.398 2184.21,621.398 2201.53,611.398 2218.85,621.398 2218.85,641.398 
  "/>
<polygon clip-path="url(#clip4402)" style="fill:#009af9; fill-opacity:1" points="
  2201.53,647.398 2187.68,639.398 2187.68,623.398 2201.53,615.398 2215.39,623.398 2215.39,639.398 
  "/>
<polygon clip-path="url(#clip4402)" style="fill:#000000; fill-opacity:1" points="
  2241.38,441.418 2224.06,431.418 2224.06,411.418 2241.38,401.418 2258.7,411.418 2258.7,431.418 
  "/>
<polygon clip-path="url(#clip4402)" style="fill:#009af9; fill-opacity:1" points="
  2241.38,437.418 2227.52,429.418 2227.52,413.418 2241.38,405.418 2255.24,413.418 2255.24,429.418 
  "/>
<polygon clip-path="url(#clip4402)" style="fill:#000000; fill-opacity:1" points="
  2255.54,277.238 2238.22,267.238 2238.22,247.238 2255.54,237.238 2272.86,247.238 2272.86,267.238 
  "/>
<polygon clip-path="url(#clip4402)" style="fill:#009af9; fill-opacity:1" points="
  2255.54,273.238 2241.69,265.238 2241.69,249.238 2255.54,241.238 2269.4,249.238 2269.4,265.238 
  "/>
<polygon clip-path="url(#clip4402)" style="fill:#000000; fill-opacity:1" points="
  2259.5,167.279 2242.18,157.279 2242.18,137.279 2259.5,127.279 2276.82,137.279 2276.82,157.279 
  "/>
<polygon clip-path="url(#clip4402)" style="fill:#009af9; fill-opacity:1" points="
  2259.5,163.279 2245.64,155.279 2245.64,139.279 2259.5,131.279 2273.35,139.279 2273.35,155.279 
  "/>
<polygon clip-path="url(#clip4402)" style="fill:#000000; fill-opacity:1" points="
  2260.65,113.874 2243.33,103.874 2243.33,83.8741 2260.65,73.8741 2277.97,83.8741 2277.97,103.874 
  "/>
<polygon clip-path="url(#clip4402)" style="fill:#009af9; fill-opacity:1" points="
  2260.65,109.874 2246.8,101.874 2246.8,85.8741 2260.65,77.8741 2274.51,85.8741 2274.51,101.874 
  "/>
<polygon clip-path="url(#clip4402)" style="fill:#000000; fill-opacity:1" points="
  2260.93,117.366 2243.61,107.366 2243.61,87.366 2260.93,77.366 2278.25,87.366 2278.25,107.366 
  "/>
<polygon clip-path="url(#clip4402)" style="fill:#009af9; fill-opacity:1" points="
  2260.93,113.366 2247.07,105.366 2247.07,89.366 2260.93,81.366 2274.78,89.366 2274.78,105.366 
  "/>
<polygon clip-path="url(#clip4402)" style="fill:#000000; fill-opacity:1" points="
  2260.18,177.741 2242.86,167.741 2242.86,147.741 2260.18,137.741 2277.5,147.741 2277.5,167.741 
  "/>
<polygon clip-path="url(#clip4402)" style="fill:#009af9; fill-opacity:1" points="
  2260.18,173.741 2246.32,165.741 2246.32,149.741 2260.18,141.741 2274.03,149.741 2274.03,165.741 
  "/>
<polygon clip-path="url(#clip4402)" style="fill:#000000; fill-opacity:1" points="
  2255.93,294.533 2238.61,284.533 2238.61,264.533 2255.93,254.533 2273.25,264.533 2273.25,284.533 
  "/>
<polygon clip-path="url(#clip4402)" style="fill:#009af9; fill-opacity:1" points="
  2255.93,290.533 2242.07,282.533 2242.07,266.533 2255.93,258.533 2269.78,266.533 2269.78,282.533 
  "/>
<polygon clip-path="url(#clip4402)" style="fill:#000000; fill-opacity:1" points="
  2239.78,464.904 2222.46,454.904 2222.46,434.904 2239.78,424.904 2257.1,434.904 2257.1,454.904 
  "/>
<polygon clip-path="url(#clip4402)" style="fill:#009af9; fill-opacity:1" points="
  2239.78,460.904 2225.93,452.904 2225.93,436.904 2239.78,428.904 2253.64,436.904 2253.64,452.904 
  "/>
<polygon clip-path="url(#clip4402)" style="fill:#000000; fill-opacity:1" points="
  2195.39,679.329 2178.07,669.329 2178.07,649.329 2195.39,639.329 2212.71,649.329 2212.71,669.329 
  "/>
<polygon clip-path="url(#clip4402)" style="fill:#009af9; fill-opacity:1" points="
  2195.39,675.329 2181.53,667.329 2181.53,651.329 2195.39,643.329 2209.25,651.329 2209.25,667.329 
  "/>
<polygon clip-path="url(#clip4402)" style="fill:#000000; fill-opacity:1" points="
  2103,917.483 2085.68,907.483 2085.68,887.483 2103,877.483 2120.32,887.483 2120.32,907.483 
  "/>
<polygon clip-path="url(#clip4402)" style="fill:#009af9; fill-opacity:1" points="
  2103,913.483 2089.14,905.483 2089.14,889.483 2103,881.483 2116.85,889.483 2116.85,905.483 
  "/>
<polygon clip-path="url(#clip4402)" style="fill:#000000; fill-opacity:1" points="
  1948.75,1148.76 1931.43,1138.76 1931.43,1118.76 1948.75,1108.76 1966.07,1118.76 1966.07,1138.76 
  "/>
<polygon clip-path="url(#clip4402)" style="fill:#009af9; fill-opacity:1" points="
  1948.75,1144.76 1934.89,1136.76 1934.89,1120.76 1948.75,1112.76 1962.6,1120.76 1962.6,1136.76 
  "/>
<polygon clip-path="url(#clip4402)" style="fill:#000000; fill-opacity:1" points="
  1731.98,1338.21 1714.66,1328.21 1714.66,1308.21 1731.98,1298.21 1749.3,1308.21 1749.3,1328.21 
  "/>
<polygon clip-path="url(#clip4402)" style="fill:#009af9; fill-opacity:1" points="
  1731.98,1334.21 1718.12,1326.21 1718.12,1310.21 1731.98,1302.21 1745.83,1310.21 1745.83,1326.21 
  "/>
<polygon clip-path="url(#clip4402)" style="fill:#000000; fill-opacity:1" points="
  1466.81,1454.84 1449.49,1444.84 1449.49,1424.84 1466.81,1414.84 1484.13,1424.84 1484.13,1444.84 
  "/>
<polygon clip-path="url(#clip4402)" style="fill:#009af9; fill-opacity:1" points="
  1466.81,1450.84 1452.96,1442.84 1452.96,1426.84 1466.81,1418.84 1480.67,1426.84 1480.67,1442.84 
  "/>
<polygon clip-path="url(#clip4402)" style="fill:#000000; fill-opacity:1" points="
  1178.92,1478.82 1161.6,1468.82 1161.6,1448.82 1178.92,1438.82 1196.24,1448.82 1196.24,1468.82 
  "/>
<polygon clip-path="url(#clip4402)" style="fill:#009af9; fill-opacity:1" points="
  1178.92,1474.82 1165.07,1466.82 1165.07,1450.82 1178.92,1442.82 1192.78,1450.82 1192.78,1466.82 
  "/>
<polygon clip-path="url(#clip4402)" style="fill:#000000; fill-opacity:1" points="
  899.338,1406.01 882.018,1396.01 882.018,1376.01 899.338,1366.01 916.658,1376.01 916.658,1396.01 
  "/>
<polygon clip-path="url(#clip4402)" style="fill:#009af9; fill-opacity:1" points="
  899.338,1402.01 885.482,1394.01 885.482,1378.01 899.338,1370.01 913.194,1378.01 913.194,1394.01 
  "/>
<polygon clip-path="url(#clip4402)" style="fill:#000000; fill-opacity:1" points="
  657.183,1248.88 639.863,1238.88 639.863,1218.88 657.183,1208.88 674.503,1218.88 674.503,1238.88 
  "/>
<polygon clip-path="url(#clip4402)" style="fill:#009af9; fill-opacity:1" points="
  657.183,1244.88 643.327,1236.88 643.327,1220.88 657.183,1212.88 671.039,1220.88 671.039,1236.88 
  "/>
<polygon clip-path="url(#clip4402)" style="fill:#000000; fill-opacity:1" points="
  472.755,1033.7 455.435,1023.7 455.435,1003.7 472.755,993.7 490.075,1003.7 490.075,1023.7 
  "/>
<polygon clip-path="url(#clip4402)" style="fill:#009af9; fill-opacity:1" points="
  472.755,1029.7 458.899,1021.7 458.899,1005.7 472.755,997.7 486.611,1005.7 486.611,1021.7 
  "/>
<polygon clip-path="url(#clip4402)" style="fill:#000000; fill-opacity:1" points="
  352.632,794.529 335.312,784.529 335.312,764.529 352.632,754.529 369.952,764.529 369.952,784.529 
  "/>
<polygon clip-path="url(#clip4402)" style="fill:#009af9; fill-opacity:1" points="
  352.632,790.529 338.776,782.529 338.776,766.529 352.632,758.529 366.488,766.529 366.488,782.529 
  "/>
<polygon clip-path="url(#clip4402)" style="fill:#000000; fill-opacity:1" points="
  288.66,565.116 271.34,555.116 271.34,535.116 288.66,525.116 305.98,535.116 305.98,555.116 
  "/>
<polygon clip-path="url(#clip4402)" style="fill:#009af9; fill-opacity:1" points="
  288.66,561.116 274.804,553.116 274.804,537.116 288.66,529.116 302.516,537.116 302.516,553.116 
  "/>
<polygon clip-path="url(#clip4402)" style="fill:#000000; fill-opacity:1" points="
  262.563,371.325 245.243,361.325 245.243,341.325 262.563,331.325 279.883,341.325 279.883,361.325 
  "/>
<polygon clip-path="url(#clip4402)" style="fill:#009af9; fill-opacity:1" points="
  262.563,367.325 248.707,359.325 248.707,343.325 262.563,335.325 276.419,343.325 276.419,359.325 
  "/>
<polygon clip-path="url(#clip4402)" style="fill:#000000; fill-opacity:1" points="
  255.069,227.691 237.749,217.691 237.749,197.691 255.069,187.691 272.389,197.691 272.389,217.691 
  "/>
<polygon clip-path="url(#clip4402)" style="fill:#009af9; fill-opacity:1" points="
  255.069,223.691 241.213,215.691 241.213,199.691 255.069,191.691 268.925,199.691 268.925,215.691 
  "/>
<polygon clip-path="url(#clip4402)" style="fill:#000000; fill-opacity:1" points="
  253.586,139.672 236.266,129.672 236.266,109.672 253.586,99.6718 270.906,109.672 270.906,129.672 
  "/>
<polygon clip-path="url(#clip4402)" style="fill:#009af9; fill-opacity:1" points="
  253.586,135.672 239.73,127.672 239.73,111.672 253.586,103.672 267.442,111.672 267.442,127.672 
  "/>
<polygon clip-path="url(#clip4402)" style="fill:#000000; fill-opacity:1" points="
  253.162,108.458 235.842,98.4582 235.842,78.4582 253.162,68.4582 270.482,78.4582 270.482,98.4582 
  "/>
<polygon clip-path="url(#clip4402)" style="fill:#009af9; fill-opacity:1" points="
  253.162,104.458 239.306,96.4582 239.306,80.4582 253.162,72.4582 267.018,80.4582 267.018,96.4582 
  "/>
<polygon clip-path="url(#clip4402)" style="fill:#000000; fill-opacity:1" points="
  252.874,134.162 235.554,124.162 235.554,104.162 252.874,94.162 270.194,104.162 270.194,124.162 
  "/>
<polygon clip-path="url(#clip4402)" style="fill:#009af9; fill-opacity:1" points="
  252.874,130.162 239.018,122.162 239.018,106.162 252.874,98.162 266.73,106.162 266.73,122.162 
  "/>
<polygon clip-path="url(#clip4402)" style="fill:#000000; fill-opacity:1" points="
  253.565,216.693 236.245,206.693 236.245,186.693 253.565,176.693 270.885,186.693 270.885,206.693 
  "/>
<polygon clip-path="url(#clip4402)" style="fill:#009af9; fill-opacity:1" points="
  253.565,212.693 239.709,204.693 239.709,188.693 253.565,180.693 267.421,188.693 267.421,204.693 
  "/>
<polygon clip-path="url(#clip4402)" style="fill:#000000; fill-opacity:1" points="
  259.713,355.042 242.393,345.042 242.393,325.042 259.713,315.042 277.033,325.042 277.033,345.042 
  "/>
<polygon clip-path="url(#clip4402)" style="fill:#009af9; fill-opacity:1" points="
  259.713,351.042 245.857,343.042 245.857,327.042 259.713,319.042 273.569,327.042 273.569,343.042 
  "/>
<polygon clip-path="url(#clip4402)" style="fill:#000000; fill-opacity:1" points="
  283.127,544.345 265.807,534.345 265.807,514.345 283.127,504.345 300.447,514.345 300.447,534.345 
  "/>
<polygon clip-path="url(#clip4402)" style="fill:#009af9; fill-opacity:1" points="
  283.127,540.345 269.271,532.345 269.271,516.345 283.127,508.345 296.983,516.345 296.983,532.345 
  "/>
<polygon clip-path="url(#clip4402)" style="fill:#000000; fill-opacity:1" points="
  342.647,771.126 325.327,761.126 325.327,741.126 342.647,731.126 359.967,741.126 359.967,761.126 
  "/>
<polygon clip-path="url(#clip4402)" style="fill:#009af9; fill-opacity:1" points="
  342.647,767.126 328.791,759.126 328.791,743.126 342.647,735.126 356.503,743.126 356.503,759.126 
  "/>
<polygon clip-path="url(#clip4402)" style="fill:#000000; fill-opacity:1" points="
  457.024,1010.6 439.704,1000.6 439.704,980.597 457.024,970.597 474.344,980.597 474.344,1000.6 
  "/>
<polygon clip-path="url(#clip4402)" style="fill:#009af9; fill-opacity:1" points="
  457.024,1006.6 443.168,998.597 443.168,982.597 457.024,974.597 470.88,982.597 470.88,998.597 
  "/>
<polygon clip-path="url(#clip4402)" style="fill:#000000; fill-opacity:1" points="
  635.646,1229.53 618.326,1219.53 618.326,1199.53 635.646,1189.53 652.966,1199.53 652.966,1219.53 
  "/>
<polygon clip-path="url(#clip4402)" style="fill:#009af9; fill-opacity:1" points="
  635.646,1225.53 621.79,1217.53 621.79,1201.53 635.646,1193.53 649.502,1201.53 649.502,1217.53 
  "/>
</svg>
